<mxfile host="app.diagrams.net" modified="2022-03-09T02:09:13.272Z" agent="5.0 (Macintosh; Intel Mac OS X 10_15_7) AppleWebKit/537.36 (KHTML, like Gecko) Chrome/98.0.4758.109 Safari/537.36" etag="RLa59C2rmVNZlPkaqHzw" version="16.6.2" type="github">
  <diagram id="T7d45cLhsy7gTXaBxhxJ" name="Page-1">
    <mxGraphModel dx="946" dy="621" grid="1" gridSize="10" guides="1" tooltips="1" connect="1" arrows="1" fold="1" page="1" pageScale="1" pageWidth="827" pageHeight="1169" math="0" shadow="0">
      <root>
        <mxCell id="0" />
        <mxCell id="1" parent="0" />
        <mxCell id="JbUCphLJjqm0brtxgs2n-3" value="" style="edgeStyle=orthogonalEdgeStyle;rounded=0;orthogonalLoop=1;jettySize=auto;html=1;" edge="1" parent="1" source="JbUCphLJjqm0brtxgs2n-1" target="JbUCphLJjqm0brtxgs2n-2">
          <mxGeometry relative="1" as="geometry" />
        </mxCell>
        <mxCell id="JbUCphLJjqm0brtxgs2n-4" value="通过反射获取Bean" style="edgeLabel;html=1;align=center;verticalAlign=middle;resizable=0;points=[];" vertex="1" connectable="0" parent="JbUCphLJjqm0brtxgs2n-3">
          <mxGeometry x="-0.375" y="-1" relative="1" as="geometry">
            <mxPoint as="offset" />
          </mxGeometry>
        </mxCell>
        <mxCell id="JbUCphLJjqm0brtxgs2n-1" value="读取XML" style="rounded=1;whiteSpace=wrap;html=1;" vertex="1" parent="1">
          <mxGeometry x="60" y="120" width="100" height="30" as="geometry" />
        </mxCell>
        <mxCell id="JbUCphLJjqm0brtxgs2n-2" value="Map" style="whiteSpace=wrap;html=1;rounded=1;" vertex="1" parent="1">
          <mxGeometry x="330" y="120" width="100" height="30" as="geometry" />
        </mxCell>
      </root>
    </mxGraphModel>
  </diagram>
</mxfile>
